# xmcd
#
# Track frame offsets: 
#        150
#        11107
#        22730
#        32717
#        41948
#        54778
#        64589
#        73984
#        85360
#        95640
#        103839
#        112760
#        121951
#        133824
#        145941
#        157945
#        169295
#        179137
#        190498
#        201046
#        211476
#        221237
#        230411
#        240249
#        252950
#        264387
#        273785
#        283827
#        292809
#        305367
#
# Disc length: 4248 seconds
#
# Revision: 0
# Processed by: cddbd v1.5.2PL0 Copyright (c) Steve Scherf et al.
# Submitted via: ExactAudioCopy v0.95b3
#
DISCID=bf10961e
DTITLE=Cliff Richard  - They Said It Wouldn't Last - The Early Years -
DTITLE=Disc 1
DYEAR=1900
DGENRE=
TTITLE0=Move It
TTITLE1=Schoolboy Crush
TTITLE2=High Class Baby
TTITLE3=My Feet Hit The Ground
TTITLE4=Apron Strings
TTITLE5=Livin' Lovin' Doll
TTITLE6=Never Mind
TTITLE7=Mean Woman Blues
TTITLE8=Don't Bug Me Baby
TTITLE9=Blue Suede Shoes
TTITLE10=Dynamite
TTITLE11=Mean Streak
TTITLE12=She's Gone
TTITLE13=I Cannot Find A True Love
TTITLE14=Willie And The Hand Jive
TTITLE15='D' In Love
TTITLE16=Nine Times Out Of Ten
TTITLE17=Choppin' 'n' Changin'
TTITLE18=Mumblin' Mosie
TTITLE19=Tough Enough
TTITLE20=Gee Whiz It's You
TTITLE21=Now's The Time To Fall In Love
TTITLE22=Nine Times Out Of Ten - Bonus track
TTITLE23=A Girl Like You - Bonus track
TTITLE24=Fall In Love With You - Bonus track
TTITLE25=Never Mind - Bonus track
TTITLE26=I Love You - Bonus track
TTITLE27=Dynamite - Bonus track
TTITLE28=Michelle - Bonus track
TTITLE29=Poor Boy - Bonus track
EXTD=
EXTT0=
EXTT1=
EXTT2=
EXTT3=
EXTT4=
EXTT5=
EXTT6=
EXTT7=
EXTT8=
EXTT9=
EXTT10=
EXTT11=
EXTT12=
EXTT13=
EXTT14=
EXTT15=
EXTT16=
EXTT17=
EXTT18=
EXTT19=
EXTT20=
EXTT21=
EXTT22=
EXTT23=
EXTT24=
EXTT25=
EXTT26=
EXTT27=
EXTT28=
EXTT29=
PLAYORDER=
